<svg xmlns="http://www.w3.org/2000/svg" width="1920" height="383" viewBox="0 0 1920 383" version="1.1"><path d="M 236 82.629 C 198.798 87.311, 172.164 100.037, 144.188 126.497 C 136.251 134.004, 134.675 135.097, 133.514 133.902 C 132.765 133.131, 131.406 127.370, 130.494 121.101 C 129.583 114.831, 128.435 108.644, 127.943 107.351 C 126.473 103.483, 123.615 104.500, 119.801 110.250 C 100.062 140.006, 89.056 167.685, 83.318 202 C 81.161 214.902, 80.850 250.681, 82.801 261.500 C 83.496 265.350, 84.238 269.934, 84.451 271.687 C 85.197 277.825, 106.397 305.204, 118.236 315.318 C 145.457 338.574, 177.117 354.038, 209 359.651 C 217.180 361.092, 224.581 361.500, 242.500 361.500 C 268.451 361.500, 278.601 360.201, 297.500 354.463 C 308.906 350.999, 328.197 342.409, 338.343 336.274 C 344.882 332.321, 358.756 322.073, 366.796 315.257 C 376.904 306.687, 398.190 279.919, 403.182 269.500 C 404.947 265.815, 404.461 255.114, 402.494 254.359 C 401.772 254.082, 397.428 255.050, 392.841 256.509 C 363.355 265.890, 332.886 267.498, 311.114 260.823 C 290.440 254.485, 272.997 239.859, 263.410 220.821 C 258.549 211.168, 256.468 211.385, 252.054 222 C 242.291 245.482, 240.934 246.782, 236.132 237.250 C 228.820 222.737, 226.209 204.149, 229.441 189.621 C 233.030 173.488, 242.884 158.995, 259.057 146.063 C 263.976 142.130, 268 138.493, 268 137.979 C 268 136.279, 263.619 134.215, 253.353 131.078 C 243.440 128.049, 240.827 126.219, 243.384 124.096 C 245.721 122.157, 259.662 116.194, 268.119 113.516 C 285.543 108, 309.359 104.714, 328 105.254 C 335.915 105.483, 336.500 105.362, 336.500 103.500 C 336.500 101.017, 330.948 98.140, 317.311 93.557 C 294.863 86.012, 277.726 82.923, 256 82.506 C 246.925 82.331, 237.925 82.387, 236 82.629 M 323.750 132.564 C 322.282 134.070, 323.048 137.387, 326.482 144.395 C 333.601 158.920, 341.832 167.027, 349.400 166.968 C 356.194 166.915, 360 162.412, 360 154.428 C 360 145.873, 353.345 138.855, 341.151 134.553 C 336.063 132.758, 324.814 131.472, 323.750 132.564" stroke="none" fill="#e3f3fb" fill-rule="evenodd"/><path d="M 226 2.114 C 202.469 4.193, 182.468 9.805, 160.626 20.457 C 108.823 45.719, 71.460 95.333, 61.938 151.500 C 57.387 178.349, 59.587 211.791, 67.465 235.500 C 72.551 250.809, 83.182 274.181, 84.459 272.863 C 84.652 272.663, 84.117 268.900, 83.269 264.500 C 80.961 252.514, 80.982 215.804, 83.306 202 C 89.103 167.566, 100.070 139.994, 119.801 110.250 C 123.615 104.500, 126.473 103.483, 127.943 107.351 C 128.435 108.644, 129.583 114.831, 130.494 121.101 C 131.406 127.370, 132.765 133.131, 133.514 133.902 C 134.675 135.097, 136.251 134.004, 144.188 126.497 C 164.662 107.132, 186.240 94.185, 208.116 88.139 C 224.610 83.581, 232.776 82.555, 252.500 82.565 C 276.837 82.577, 293.635 85.468, 318.417 93.911 C 331.189 98.262, 336.500 101.078, 336.500 103.500 C 336.500 105.362, 335.915 105.483, 328 105.254 C 309.359 104.714, 285.543 108, 268.119 113.516 C 259.662 116.194, 245.721 122.157, 243.384 124.096 C 240.827 126.219, 243.440 128.049, 253.353 131.078 C 263.619 134.215, 268 136.279, 268 137.979 C 268 138.493, 263.976 142.130, 259.057 146.063 C 242.884 158.995, 233.030 173.488, 229.441 189.621 C 226.209 204.149, 228.820 222.737, 236.132 237.250 C 240.934 246.782, 242.291 245.482, 252.054 222 C 256.468 211.385, 258.549 211.168, 263.410 220.821 C 272.997 239.859, 290.440 254.485, 311.114 260.823 C 332.886 267.498, 363.355 265.890, 392.841 256.509 C 397.428 255.050, 401.816 254.099, 402.591 254.396 C 403.545 254.763, 404 256.563, 404 259.969 C 404 262.736, 404.407 265, 404.905 265 C 406.045 265, 414.995 243.909, 418.311 233.405 C 425.465 210.749, 427.412 177.166, 423.062 151.500 C 413.557 95.430, 376.113 45.646, 324.592 20.577 C 301.643 9.411, 282.939 4.247, 257.500 2.055 C 244.067 0.897, 239.684 0.905, 226 2.114 M 323.750 132.564 C 322.282 134.070, 323.048 137.387, 326.482 144.395 C 333.601 158.920, 341.832 167.027, 349.400 166.968 C 356.194 166.915, 360 162.412, 360 154.428 C 360 145.873, 353.345 138.855, 341.151 134.553 C 336.063 132.758, 324.814 131.472, 323.750 132.564 M 924.151 153.069 C 903.623 158.368, 885.982 174.787, 879.634 194.500 C 876.024 205.713, 876 224.368, 879.582 235.219 C 885.792 254.030, 900.499 268.784, 919.782 275.548 C 930.204 279.204, 950.351 280.152, 961.321 277.502 C 974.173 274.398, 987.790 266.676, 993.678 259.152 L 995.902 256.310 986.443 247.577 L 976.984 238.844 972.242 243.026 C 955.643 257.665, 931.248 256.900, 916.984 241.292 C 902.995 225.986, 903.897 200.724, 918.933 186.659 C 925.026 180.960, 930.960 178.138, 939.345 176.951 C 951.823 175.185, 962.876 178.506, 972.110 186.796 L 976.896 191.092 984.029 184.333 C 987.952 180.616, 992.026 176.970, 993.081 176.231 C 996.210 174.039, 995.315 171.433, 989.750 166.527 C 983.482 161.002, 970.811 154.479, 962.500 152.500 C 953.645 150.391, 933.356 150.692, 924.151 153.069 M 1414.500 152.461 C 1387.171 159.235, 1367.951 180.424, 1365.237 206.769 C 1363.502 223.607, 1366.788 238.030, 1375.235 250.660 C 1384.014 263.786, 1397.102 272.680, 1414.136 277.095 C 1425.851 280.132, 1445.988 279.472, 1456.835 275.695 C 1477.475 268.509, 1492.679 252.899, 1498.670 232.744 C 1500.686 225.963, 1500.932 206.444, 1499.096 199 C 1496.231 187.389, 1489.260 176.066, 1479.768 167.605 C 1466.367 155.660, 1452.904 151.021, 1432 151.146 C 1425.125 151.187, 1417.250 151.779, 1414.500 152.461 M 504 215 L 504 277 519 277 L 534 277 534 260 L 534 243 546.424 243 L 558.847 243 570.529 260 L 582.211 277 598.105 277 C 606.847 277, 614 276.623, 614 276.163 C 614 275.702, 612.290 272.890, 610.199 269.913 C 595.629 249.163, 588 238.111, 588 237.753 C 588 237.524, 590.227 235.894, 592.949 234.130 C 599.317 230.004, 605.256 223.220, 608.715 216.124 C 611.254 210.914, 611.456 209.580, 611.466 198 C 611.476 185.962, 611.358 185.257, 608.277 178.938 C 602.461 167.010, 591.072 158.378, 576.169 154.603 C 570.995 153.293, 563.826 153, 536.919 153 L 504 153 504 215 M 633 215 L 633 277 681.500 277 L 730 277 730 265 L 730 253 696.500 253 L 663 253 663 239.500 L 663 226 691.500 226 L 720 226 720 214 L 720 202 691.500 202 L 663 202 663 189.500 L 663 177 695.500 177 L 728 177 728 165 L 728 153 680.500 153 L 633 153 633 215 M 789.144 154.750 C 788.634 155.713, 787.039 159.310, 785.598 162.745 C 784.157 166.180, 781.884 171.355, 780.546 174.245 C 779.208 177.135, 773.315 190.300, 767.451 203.500 C 756.301 228.600, 754.232 233.250, 751.097 240.250 C 745.621 252.475, 735.750 274.663, 735.292 275.776 C 734.876 276.785, 738.047 276.994, 750.475 276.776 L 766.183 276.500 771.329 263.750 L 776.475 251 804.616 251 L 832.756 251 838.076 264 L 843.396 277 859.305 277 C 871.644 277, 875.097 276.720, 874.692 275.750 C 874.404 275.063, 870.729 266.850, 866.525 257.500 C 862.320 248.150, 858.280 239.150, 857.546 237.500 C 854.293 230.188, 849.969 220.566, 844.500 208.470 C 843.125 205.429, 842 202.780, 842 202.584 C 842 202.388, 839.975 197.923, 837.500 192.662 C 835.025 187.401, 833 182.901, 833 182.662 C 833 182.423, 831.061 178.013, 828.692 172.864 C 826.322 167.714, 823.320 161.137, 822.021 158.250 L 819.658 153 804.864 153 C 791.794 153, 789.962 153.204, 789.144 154.750 M 1013.667 153.667 C 1013.300 154.033, 1013 181.933, 1013 215.667 L 1013 277 1028 277 L 1043 277 1043 252 L 1043 227 1070.500 227 L 1098 227 1098 252 L 1098 277 1113 277 L 1128 277 1128 215 L 1128 153 1113 153 L 1098 153 1098 177 L 1098 201 1070.500 201 L 1043 201 1043 177 L 1043 153 1028.667 153 C 1020.783 153, 1014.033 153.300, 1013.667 153.667 M 1156 215 L 1156 277 1170.481 277 L 1184.962 277 1185.231 254.750 L 1185.500 232.500 1214 232 L 1242.500 231.500 1242.793 222 C 1242.954 216.775, 1242.833 211.488, 1242.524 210.250 L 1241.962 208 1213.481 208 L 1185 208 1185 192.500 L 1185 177 1217.500 177 L 1250 177 1250 165 L 1250 153 1203 153 L 1156 153 1156 215 M 1268 215 L 1268 277 1314.031 277 L 1360.062 277 1359.781 264.750 L 1359.500 252.500 1328.750 252.236 L 1298 251.971 1298 202.486 L 1298 153 1283 153 L 1268 153 1268 215 M 1506.263 154.224 C 1506.509 154.926, 1515.663 182.830, 1526.605 216.233 L 1546.500 276.967 1562.509 276.983 L 1578.518 277 1592.104 236.250 L 1605.690 195.500 1615.277 225 C 1620.550 241.225, 1626.496 259.574, 1628.490 265.774 L 1632.116 277.049 1648.265 276.774 L 1664.415 276.500 1684.188 216 C 1695.063 182.725, 1703.969 154.925, 1703.980 154.223 C 1703.996 153.232, 1700.821 153.007, 1689.863 153.223 L 1675.725 153.500 1662.272 194.500 C 1654.872 217.050, 1648.501 235.835, 1648.114 236.245 C 1647.727 236.654, 1641.348 218.204, 1633.937 195.245 L 1620.464 153.500 1606.477 153.224 L 1592.491 152.948 1578.526 194.922 C 1570.846 218.007, 1564.380 236.713, 1564.158 236.491 C 1563.935 236.269, 1557.787 217.505, 1550.495 194.793 L 1537.236 153.500 1521.526 153.224 C 1509.130 153.006, 1505.910 153.217, 1506.263 154.224 M 1426.228 177.029 C 1415.600 178.557, 1404.427 186.334, 1399.766 195.449 C 1393.545 207.617, 1393.536 222.386, 1399.745 234.500 C 1406.498 247.676, 1423.957 255.812, 1439.267 252.915 C 1452.038 250.498, 1461.327 243.433, 1466.766 232 C 1469.102 227.090, 1469.389 225.266, 1469.441 215 C 1469.497 204.003, 1469.358 203.210, 1466.258 196.873 C 1459.171 182.388, 1443.387 174.564, 1426.228 177.029 M 534 197.983 L 534 219.179 549.250 218.740 C 566.905 218.232, 571.174 217.169, 576.037 212.071 C 583.761 203.975, 583.761 192.025, 576.037 183.929 C 571.213 178.873, 567.003 177.825, 549.250 177.266 L 534 176.786 534 197.983 M 804.032 183.792 C 804.015 184.503, 800.175 194.337, 795.500 205.645 C 790.825 216.953, 787 226.609, 787 227.103 C 787 227.598, 794.834 228, 804.500 228 C 818.922 228, 822 227.751, 822 226.585 C 822 224.764, 804.075 182.074, 804.032 183.792 M 237.287 362.740 C 240.469 362.939, 245.419 362.937, 248.287 362.736 C 251.154 362.535, 248.550 362.372, 242.500 362.374 C 236.450 362.376, 234.104 362.541, 237.287 362.740" stroke="none" fill="#092447" fill-rule="evenodd"/></svg>