<svg xmlns="http://www.w3.org/2000/svg" width="1000" height="1000" viewBox="0 0 1000 1000" version="1.1"><path d="M 452.500 6.586 C 405.183 11.173, 356.487 23.137, 312.186 41.060 C 294.866 48.068, 264.054 63.437, 246.933 73.609 C 175.321 116.156, 114.639 177.064, 72.809 248.380 C 35.745 311.572, 13.370 380.975, 6.539 453.937 C 4.481 475.922, 4.481 524.078, 6.539 546.063 C 11.081 594.571, 22.857 642.906, 41.074 687.814 C 49.898 709.566, 71.934 752.884, 71.946 748.500 C 71.949 747.400, 71.483 744.475, 70.910 742 C 69.105 734.192, 65.542 707.007, 63.833 688 C 62.286 670.786, 61.586 610.803, 62.860 604.500 C 63.415 601.750, 64.387 592.975, 65.018 585 C 65.650 577.025, 66.541 567.800, 66.997 564.500 C 68.373 554.560, 72.497 530.302, 73.882 524 C 78.762 501.788, 79.352 499.264, 80.889 494 C 81.451 492.075, 82.556 488.025, 83.344 485 C 84.132 481.975, 85.432 477.475, 86.234 475 C 87.036 472.525, 88.460 467.800, 89.400 464.500 C 90.339 461.200, 91.498 457.600, 91.976 456.500 C 92.454 455.400, 93.609 452.250, 94.543 449.500 C 99.236 435.686, 101.944 428.434, 104.900 421.761 C 106.055 419.154, 107 416.767, 107 416.456 C 107 416.145, 107.845 414.002, 108.877 411.695 C 109.909 409.388, 111.728 405.250, 112.920 402.500 C 118.276 390.137, 119.968 386.558, 127.576 371.500 C 137.309 352.237, 141.780 344.024, 148.169 333.671 C 150.826 329.365, 153 325.610, 153 325.328 C 153 324.188, 173.479 294.274, 176.329 291.250 C 179.694 287.680, 183.223 287.067, 186.640 289.460 C 189.461 291.436, 190.750 295.020, 192.050 304.500 C 192.654 308.900, 193.547 314.975, 194.036 318 C 194.525 321.025, 195.651 328.225, 196.537 334 C 201.270 364.822, 201.509 365.953, 203.767 368.212 C 208.229 372.674, 209.842 371.627, 231.366 350.301 C 253.315 328.553, 259.643 322.871, 277 309.328 C 308.961 284.390, 344.562 264.349, 381.500 250.501 C 387 248.438, 392.400 246.398, 393.500 245.966 C 402.622 242.382, 434.778 234.265, 450.602 231.551 C 500.174 223.049, 555.261 223.372, 609.500 232.484 C 646.137 238.639, 686.778 250.207, 725.394 265.473 C 753.774 276.692, 757.231 278.959, 755.638 285.307 C 754.256 290.814, 752.482 291.127, 729.720 289.868 C 706.773 288.600, 673.136 289.818, 656 292.538 C 650.775 293.367, 643.125 294.485, 639 295.023 C 631.534 295.995, 628.891 296.520, 607 301.372 C 580.070 307.341, 543.540 320.101, 516.056 333.138 C 501.547 340.021, 500 341.210, 500 345.481 C 500 351.412, 500.144 351.476, 545.500 365.694 C 567.990 372.744, 569.056 373.363, 568.968 379.332 C 568.921 382.557, 567.682 383.765, 553.500 394.419 C 518.977 420.355, 494.599 447.931, 479.329 478.320 C 470.920 495.054, 467.043 506.527, 462.372 528.500 C 459.900 540.125, 459.907 576.790, 462.383 590 C 466.812 613.627, 472.054 629.796, 482.075 650.736 C 490.665 668.686, 492.613 670.813, 497.843 667.953 C 501.083 666.181, 503.343 661.646, 520.237 623.028 C 527.341 606.788, 534.027 592.084, 535.094 590.354 C 536.161 588.624, 538.174 586.922, 539.566 586.573 C 544.654 585.296, 546.826 587.705, 555.071 603.776 C 563.818 620.825, 571.044 632.373, 580.867 645 C 618.321 693.144, 673.303 721.548, 739.500 726.951 C 765.213 729.050, 772.608 729.220, 788.274 728.072 C 834.090 724.714, 873.944 716.667, 914.645 702.557 C 929.620 697.365, 932.740 697.030, 935.797 700.284 C 937.755 702.369, 937.967 703.828, 938.221 717.034 L 938.500 731.500 946.205 715.804 C 961.274 685.108, 972.847 652.894, 981.524 617.500 C 991.330 577.498, 995 545.502, 995 500 C 995 454.498, 991.330 422.502, 981.524 382.500 C 965.073 315.390, 936.034 254.468, 894.059 199 C 869.588 166.664, 833.336 130.412, 801 105.941 C 725.858 49.078, 639.099 15.250, 546.063 6.539 C 525.463 4.610, 472.604 4.637, 452.500 6.586 M 719.589 366.077 C 718.165 367.769, 717 370.194, 717 371.466 C 717 372.738, 719.275 378.891, 722.055 385.139 C 738.908 423.009, 756.906 446.771, 775.773 456.060 C 786.474 461.328, 798.125 460.640, 806.695 454.235 C 813.477 449.166, 820.008 434.573, 819.994 424.522 C 819.973 409.233, 808.434 391.738, 791.027 380.604 C 775.874 370.911, 748.149 363.071, 728.839 363.018 C 722.618 363.001, 722.007 363.203, 719.589 366.077" stroke="none" fill="#04244c" fill-rule="evenodd"/><path d="M 498.137 226.080 C 474.312 227.374, 451.303 230.765, 427 236.564 C 413.727 239.732, 398.470 244.013, 393.500 245.966 C 392.400 246.398, 387 248.438, 381.500 250.501 C 344.562 264.349, 308.961 284.390, 277 309.328 C 259.643 322.871, 253.315 328.553, 231.366 350.301 C 209.842 371.627, 208.229 372.674, 203.767 368.212 C 201.509 365.953, 201.270 364.822, 196.537 334 C 195.651 328.225, 194.525 321.025, 194.036 318 C 193.547 314.975, 192.654 308.900, 192.050 304.500 C 190.750 295.020, 189.461 291.436, 186.640 289.460 C 183.223 287.067, 179.694 287.680, 176.329 291.250 C 173.479 294.274, 153 324.188, 153 325.328 C 153 325.610, 150.826 329.365, 148.169 333.671 C 141.780 344.024, 137.309 352.237, 127.576 371.500 C 119.968 386.558, 118.276 390.137, 112.920 402.500 C 111.728 405.250, 109.909 409.388, 108.877 411.695 C 107.845 414.002, 107 416.145, 107 416.456 C 107 416.767, 106.055 419.154, 104.900 421.761 C 101.944 428.434, 99.236 435.686, 94.543 449.500 C 93.609 452.250, 92.454 455.400, 91.976 456.500 C 91.498 457.600, 90.339 461.200, 89.400 464.500 C 88.460 467.800, 87.036 472.525, 86.234 475 C 85.432 477.475, 84.132 481.975, 83.344 485 C 82.556 488.025, 81.451 492.075, 80.889 494 C 79.352 499.264, 78.762 501.788, 73.882 524 C 72.497 530.302, 68.373 554.560, 66.997 564.500 C 66.541 567.800, 65.650 577.025, 65.018 585 C 64.387 592.975, 63.415 601.750, 62.860 604.500 C 61.592 610.774, 62.283 670.692, 63.822 688 C 65.314 704.786, 66.866 718.433, 67.972 724.500 C 68.473 727.250, 69.647 734.225, 70.581 740 C 72.561 752.241, 73.771 754.738, 88.267 776.500 C 106.601 804.025, 124.821 826.014, 150.419 851.509 C 182.507 883.470, 210.322 904.916, 250.500 928.675 C 258.200 933.228, 264.950 937.310, 265.500 937.745 C 267.239 939.123, 301.016 954.610, 313 959.525 C 341.936 971.392, 385.261 983.787, 414.115 988.455 C 449.879 994.241, 453.555 994.500, 500 994.500 C 546.445 994.500, 550.121 994.241, 585.885 988.455 C 614.739 983.787, 658.064 971.392, 687 959.525 C 699.601 954.357, 733.201 938.937, 734 937.955 C 734.275 937.617, 738.550 935.166, 743.500 932.508 C 748.450 929.850, 753.625 926.920, 755 925.996 C 756.375 925.073, 764.070 919.990, 772.101 914.701 C 840.376 869.729, 893.610 812.216, 934.840 738.878 L 938 733.257 938 717.803 C 938 702.942, 937.911 702.265, 935.686 700.174 C 932.396 697.084, 929.480 697.414, 914.645 702.557 C 873.944 716.667, 834.090 724.714, 788.274 728.072 C 772.608 729.220, 765.213 729.050, 739.500 726.951 C 673.303 721.548, 618.321 693.144, 580.867 645 C 571.044 632.373, 563.818 620.825, 555.071 603.776 C 546.826 587.705, 544.654 585.296, 539.566 586.573 C 538.174 586.922, 536.161 588.624, 535.094 590.354 C 534.027 592.084, 527.341 606.788, 520.237 623.028 C 503.343 661.646, 501.083 666.181, 497.843 667.953 C 492.613 670.813, 490.665 668.686, 482.075 650.736 C 472.054 629.796, 466.812 613.627, 462.383 590 C 459.907 576.790, 459.900 540.125, 462.372 528.500 C 467.043 506.527, 470.920 495.054, 479.329 478.320 C 494.599 447.931, 518.977 420.355, 553.500 394.419 C 560.650 389.048, 567.048 383.943, 567.718 383.076 C 569.057 381.344, 569.345 378.062, 568.379 375.545 C 567.279 372.679, 565.549 371.988, 537 363.005 C 527.925 360.150, 516.900 356.676, 512.500 355.286 C 503.034 352.296, 500 349.916, 500 345.481 C 500 341.210, 501.547 340.021, 516.056 333.138 C 543.540 320.101, 580.070 307.341, 607 301.372 C 628.891 296.520, 631.534 295.995, 639 295.023 C 643.125 294.485, 650.775 293.367, 656 292.538 C 673.136 289.818, 706.773 288.600, 729.720 289.868 C 752.482 291.127, 754.256 290.814, 755.638 285.307 C 757.231 278.959, 753.774 276.692, 725.394 265.473 C 664.924 241.568, 608.147 228.873, 549 226.031 C 526.859 224.967, 518.475 224.975, 498.137 226.080 M 719.589 366.077 C 718.165 367.769, 717 370.194, 717 371.466 C 717 372.738, 719.275 378.891, 722.055 385.139 C 738.908 423.009, 756.906 446.771, 775.773 456.060 C 786.474 461.328, 798.125 460.640, 806.695 454.235 C 813.477 449.166, 820.008 434.573, 819.994 424.522 C 819.973 409.233, 808.434 391.738, 791.027 380.604 C 775.874 370.911, 748.149 363.071, 728.839 363.018 C 722.618 363.001, 722.007 363.203, 719.589 366.077" stroke="none" fill="#e3f3fb" fill-rule="evenodd"/></svg>